<?xml version="1.0" encoding="UTF-8" standalone="no"?>
<svg
   id="Layer_1"
   style="enable-background:new 0 0 512 512;"
   version="1.1"
   viewBox="0 0 512 512"
   xml:space="preserve"
   sodipodi:docname="IconBack.svg"
   inkscape:version="1.2.1 (9c6d41e, 2022-07-14)"
   xmlns:inkscape="http://www.inkscape.org/namespaces/inkscape"
   xmlns:sodipodi="http://sodipodi.sourceforge.net/DTD/sodipodi-0.dtd"
   xmlns="http://www.w3.org/2000/svg"
   xmlns:svg="http://www.w3.org/2000/svg"><defs
     id="defs7" /><sodipodi:namedview
     id="namedview5"
     pagecolor="#ffffff"
     bordercolor="#000000"
     borderopacity="0.25"
     inkscape:showpageshadow="2"
     inkscape:pageopacity="0.0"
     inkscape:pagecheckerboard="0"
     inkscape:deskcolor="#d1d1d1"
     showgrid="false"
     inkscape:zoom="0.4609375"
     inkscape:cx="71.59322"
     inkscape:cy="256"
     inkscape:window-width="1800"
     inkscape:window-height="1022"
     inkscape:window-x="0"
     inkscape:window-y="44"
     inkscape:window-maximized="1"
     inkscape:current-layer="Layer_1" /><path
     d="M50.2,169.6C97.9,56.3,228.5,3.1,341.8,50.9s166.4,178.3,118.7,291.6S282.2,508.9,168.9,461.1  C86.4,426.4,32.7,345.5,32.7,256C32.7,226.3,38.6,196.9,50.2,169.6z M254.7,448c106,0,192-86,192-192s-86-192-192-192  s-192,86-192,192S148.7,448,254.7,448z M226.7,140.7L111.4,256l115.3,115.3l21.2-21.2L168.7,271h208.2v-30H168.7l79.1-79.1  L226.7,140.7z"
     id="path2"
     style="fill:#ffffff" /></svg>
