<?xml version="1.0" encoding="UTF-8" standalone="no"?>
<svg
   enable-background="new 0 0 256 256"
   height="256px"
   id="Layer_1"
   version="1.1"
   viewBox="0 0 256 256"
   width="256px"
   xml:space="preserve"
   sodipodi:docname="1303876_cancel_circle_close_cross_delete_icon.svg"
   inkscape:version="1.2.1 (9c6d41e, 2022-07-14)"
   xmlns:inkscape="http://www.inkscape.org/namespaces/inkscape"
   xmlns:sodipodi="http://sodipodi.sourceforge.net/DTD/sodipodi-0.dtd"
   xmlns="http://www.w3.org/2000/svg"
   xmlns:svg="http://www.w3.org/2000/svg"><defs
     id="defs7" /><sodipodi:namedview
     id="namedview5"
     pagecolor="#ffffff"
     bordercolor="#000000"
     borderopacity="0.25"
     inkscape:showpageshadow="2"
     inkscape:pageopacity="0.0"
     inkscape:pagecheckerboard="0"
     inkscape:deskcolor="#d1d1d1"
     showgrid="false"
     inkscape:zoom="0.921875"
     inkscape:cx="36.338983"
     inkscape:cy="128"
     inkscape:window-width="1309"
     inkscape:window-height="456"
     inkscape:window-x="0"
     inkscape:window-y="44"
     inkscape:window-maximized="0"
     inkscape:current-layer="Layer_1" /><path
     d="M183.191,174.141c2.5,2.498,2.5,6.552,0,9.05c-1.249,1.25-2.889,1.875-4.525,1.875c-1.638,0-3.277-0.625-4.525-1.875  l-46.142-46.142L81.856,183.19c-1.249,1.25-2.888,1.875-4.525,1.875c-1.638,0-3.277-0.625-4.525-1.875c-2.5-2.498-2.5-6.552,0-9.05  l46.143-46.143L72.806,81.856c-2.5-2.499-2.5-6.552,0-9.05c2.497-2.5,6.553-2.5,9.05,0l46.142,46.142l46.142-46.142  c2.497-2.5,6.553-2.5,9.051,0c2.5,2.499,2.5,6.552,0,9.05l-46.143,46.142L183.191,174.141z M256,128C256,57.42,198.58,0,128,0  C57.42,0,0,57.42,0,128c0,70.58,57.42,128,128,128C198.58,256,256,198.58,256,128z M243.2,128c0,63.521-51.679,115.2-115.2,115.2  c-63.522,0-115.2-51.679-115.2-115.2C12.8,64.478,64.478,12.8,128,12.8C191.521,12.8,243.2,64.478,243.2,128z"
     id="path2"
     style="fill:#ffffff" /></svg>
